<svg width="116" height="24" viewBox="0 0 116 24" fill="none" xmlns="http://www.w3.org/2000/svg">
<path d="M18.2688 15.0613C18.2688 16.3902 18.042 17.6032 17.5885 18.7001C17.135 19.797 16.518 20.7409 15.7375 21.532C14.957 22.3125 14.0394 22.9189 12.9847 23.3514C11.9405 23.7838 10.8172 24 9.61486 24C8.42303 24 7.29976 23.7785 6.24505 23.3355C5.20088 22.8926 4.28328 22.2755 3.49225 21.4845C2.71176 20.6935 2.09475 19.7548 1.64123 18.6684C1.1877 17.5715 0.960938 16.3692 0.960938 15.0613V0H5.29581V7.91035C5.52785 7.61503 5.80734 7.35135 6.13431 7.11931C6.47181 6.88728 6.83042 6.69743 7.21011 6.54977C7.60036 6.40211 8.00115 6.29136 8.41249 6.21753C8.82382 6.13316 9.22462 6.09097 9.61486 6.09097C10.8172 6.09097 11.9405 6.31773 12.9847 6.77126C14.0394 7.21424 14.957 7.83652 15.7375 8.6381C16.518 9.43968 17.135 10.3889 17.5885 11.4858C18.042 12.5722 18.2688 13.764 18.2688 15.0613ZM13.9181 15.0613C13.9181 14.4074 13.8021 13.8009 13.57 13.2419C13.3485 12.6724 13.0427 12.1819 12.6524 11.7706C12.2622 11.3593 11.8034 11.0376 11.276 10.8055C10.7592 10.5735 10.2055 10.4575 9.61486 10.4575C9.02422 10.4575 8.46522 10.5893 7.93787 10.853C7.42106 11.1061 6.96753 11.4489 6.57729 11.8813C6.18704 12.3032 5.88117 12.7937 5.65969 13.3527C5.4382 13.9011 5.32745 14.4707 5.32745 15.0613C5.32745 15.7152 5.4382 16.3217 5.65969 16.8807C5.88117 17.4397 6.18704 17.9249 6.57729 18.3362C6.96753 18.7475 7.42106 19.0745 7.93787 19.3171C8.46522 19.5491 9.02422 19.6651 9.61486 19.6651C10.2055 19.6651 10.7592 19.5491 11.276 19.3171C11.8034 19.0745 12.2622 18.7475 12.6524 18.3362C13.0427 17.9249 13.3485 17.4397 13.57 16.8807C13.8021 16.3217 13.9181 15.7152 13.9181 15.0613Z" fill="#3D3D3D"/>
<path d="M26.1171 19.5386C26.2859 19.5913 26.4546 19.6282 26.6234 19.6493C26.7921 19.6599 26.9609 19.6651 27.1296 19.6651C27.5515 19.6651 27.9576 19.6071 28.3478 19.4911C28.7381 19.3751 29.102 19.2116 29.4395 19.0007C29.7875 18.7792 30.0934 18.5155 30.3571 18.2096C30.6313 17.8932 30.8528 17.5452 31.0215 17.1655L34.1857 20.3454C33.7849 20.915 33.3208 21.4265 32.7934 21.88C32.2766 22.3336 31.7124 22.7185 31.1006 23.0349C30.4994 23.3514 29.8613 23.5887 29.1863 23.7469C28.5219 23.9156 27.8363 24 27.1296 24C25.9378 24 24.8145 23.7785 23.7598 23.3355C22.7157 22.8926 21.7981 22.2755 21.007 21.4845C20.2265 20.6935 19.6095 19.7548 19.156 18.6684C18.7025 17.5715 18.4757 16.3692 18.4757 15.0613C18.4757 13.7218 18.7025 12.4984 19.156 11.3909C19.6095 10.2835 20.2265 9.33949 21.007 8.559C21.7981 7.77851 22.7157 7.17205 23.7598 6.73962C24.8145 6.30719 25.9378 6.09097 27.1296 6.09097C27.8363 6.09097 28.5271 6.17535 29.2022 6.3441C29.8772 6.51285 30.5153 6.75544 31.1165 7.07185C31.7282 7.38827 32.2977 7.77851 32.8251 8.24258C33.3524 8.69611 33.8165 9.20765 34.2173 9.77719L26.1171 19.5386ZM28.332 10.6315C28.1316 10.5577 27.9312 10.5102 27.7308 10.4891C27.541 10.468 27.3406 10.4575 27.1296 10.4575C26.539 10.4575 25.98 10.5682 25.4526 10.7897C24.9358 11.0007 24.4823 11.3065 24.0921 11.7073C23.7124 12.1081 23.4118 12.5933 23.1903 13.1628C22.9688 13.7218 22.8581 14.3546 22.8581 15.0613C22.8581 15.2195 22.8633 15.3988 22.8739 15.5992C22.895 15.7996 22.9213 16.0053 22.953 16.2162C22.9952 16.4166 23.0426 16.6117 23.0954 16.8016C23.1481 16.9914 23.2167 17.1602 23.301 17.3078L28.332 10.6315Z" fill="#3D3D3D"/>
<path d="M43.6003 23.6836C42.5561 23.6836 41.5752 23.4885 40.6576 23.0982C39.74 22.6974 38.9331 22.1543 38.237 21.4687C37.5515 20.7726 37.0083 19.9657 36.6075 19.0481C36.2173 18.1305 36.0221 17.1496 36.0221 16.1055V11.0745H33.918V6.77126H36.0221V0H40.3254V6.77126H46.8751V11.0745H40.3254V16.1055C40.3254 16.559 40.4097 16.9862 40.5785 17.3869C40.7472 17.7772 40.9793 18.12 41.2746 18.4153C41.5699 18.7106 41.918 18.9479 42.3188 19.1272C42.7196 19.296 43.1467 19.3804 43.6003 19.3804H46.8751V23.6836H43.6003Z" fill="#3D3D3D"/>
<path d="M56.5112 23.6836C55.467 23.6836 54.4862 23.4885 53.5686 23.0982C52.651 22.6974 51.8441 22.1543 51.148 21.4687C50.4624 20.7726 49.9192 19.9657 49.5185 19.0481C49.1282 18.1305 48.9331 17.1496 48.9331 16.1055V11.0745H46.8289V6.77126H48.9331V0H53.2363V6.77126H59.7861V11.0745H53.2363V16.1055C53.2363 16.559 53.3207 16.9862 53.4895 17.3869C53.6582 17.7772 53.8902 18.12 54.1856 18.4153C54.4809 18.7106 54.8289 18.9479 55.2297 19.1272C55.6305 19.296 56.0577 19.3804 56.5112 19.3804H59.7861V23.6836H56.5112Z" fill="#3D3D3D"/>
<path d="M67.6661 19.5386C67.8348 19.5913 68.0036 19.6282 68.1723 19.6493C68.3411 19.6599 68.5098 19.6651 68.6786 19.6651C69.1005 19.6651 69.5065 19.6071 69.8968 19.4911C70.287 19.3751 70.6509 19.2116 70.9884 19.0007C71.3365 18.7792 71.6423 18.5155 71.906 18.2096C72.1802 17.8932 72.4017 17.5452 72.5705 17.1655L75.7346 20.3454C75.3338 20.915 74.8698 21.4265 74.3424 21.88C73.8256 22.3336 73.2613 22.7185 72.6496 23.0349C72.0484 23.3514 71.4103 23.5887 70.7353 23.7469C70.0708 23.9156 69.3852 24 68.6786 24C67.4868 24 66.3635 23.7785 65.3088 23.3355C64.2646 22.8926 63.347 22.2755 62.556 21.4845C61.7755 20.6935 61.1585 19.7548 60.705 18.6684C60.2514 17.5715 60.0247 16.3692 60.0247 15.0613C60.0247 13.7218 60.2514 12.4984 60.705 11.3909C61.1585 10.2835 61.7755 9.33949 62.556 8.559C63.347 7.77851 64.2646 7.17205 65.3088 6.73962C66.3635 6.30719 67.4868 6.09097 68.6786 6.09097C69.3852 6.09097 70.0761 6.17535 70.7511 6.3441C71.4261 6.51285 72.0642 6.75544 72.6654 7.07185C73.2771 7.38827 73.8467 7.77851 74.374 8.24258C74.9014 8.69611 75.3655 9.20765 75.7663 9.77719L67.6661 19.5386ZM69.881 10.6315C69.6806 10.5577 69.4802 10.5102 69.2798 10.4891C69.0899 10.468 68.8895 10.4575 68.6786 10.4575C68.088 10.4575 67.529 10.5682 67.0016 10.7897C66.4848 11.0007 66.0313 11.3065 65.641 11.7073C65.2613 12.1081 64.9607 12.5933 64.7392 13.1628C64.5177 13.7218 64.407 14.3546 64.407 15.0613C64.407 15.2195 64.4123 15.3988 64.4228 15.5992C64.4439 15.7996 64.4703 16.0053 64.5019 16.2162C64.5441 16.4166 64.5916 16.6117 64.6443 16.8016C64.697 16.9914 64.7656 17.1602 64.85 17.3078L69.881 10.6315Z" fill="#3D3D3D"/>
<path d="M80.9725 23.6836H76.6535V6.73962H77.6977L79.1215 8.74885C79.8176 8.11602 80.6087 7.63085 81.4946 7.29334C82.3806 6.94529 83.2982 6.77126 84.2474 6.77126H88.0602V11.0745H84.2474C83.7939 11.0745 83.3667 11.1589 82.966 11.3276C82.5652 11.4964 82.2171 11.7284 81.9218 12.0237C81.6265 12.3191 81.3944 12.6671 81.2257 13.0679C81.0569 13.4687 80.9725 13.8958 80.9725 14.3494V23.6836Z" fill="#3D3D3D"/>
<path d="M95.1966 19.5386C95.3654 19.5913 95.5341 19.6282 95.7029 19.6493C95.8716 19.6599 96.0404 19.6651 96.2091 19.6651C96.631 19.6651 97.0371 19.6071 97.4273 19.4911C97.8176 19.3751 98.1814 19.2116 98.519 19.0007C98.867 18.7792 99.1729 18.5155 99.4366 18.2096C99.7108 17.8932 99.9323 17.5452 100.101 17.1655L103.265 20.3454C102.864 20.915 102.4 21.4265 101.873 21.88C101.356 22.3336 100.792 22.7185 100.18 23.0349C99.5789 23.3514 98.9408 23.5887 98.2658 23.7469C97.6014 23.9156 96.9158 24 96.2091 24C95.0173 24 93.894 23.7785 92.8393 23.3355C91.7952 22.8926 90.8776 22.2755 90.0865 21.4845C89.306 20.6935 88.689 19.7548 88.2355 18.6684C87.782 17.5715 87.5552 16.3692 87.5552 15.0613C87.5552 13.7218 87.782 12.4984 88.2355 11.3909C88.689 10.2835 89.306 9.33949 90.0865 8.559C90.8776 7.77851 91.7952 7.17205 92.8393 6.73962C93.894 6.30719 95.0173 6.09097 96.2091 6.09097C96.9158 6.09097 97.6066 6.17535 98.2816 6.3441C98.9567 6.51285 99.5948 6.75544 100.196 7.07185C100.808 7.38827 101.377 7.77851 101.905 8.24258C102.432 8.69611 102.896 9.20765 103.297 9.77719L95.1966 19.5386ZM97.4115 10.6315C97.2111 10.5577 97.0107 10.5102 96.8103 10.4891C96.6205 10.468 96.4201 10.4575 96.2091 10.4575C95.6185 10.4575 95.0595 10.5682 94.5321 10.7897C94.0153 11.0007 93.5618 11.3065 93.1716 11.7073C92.7919 12.1081 92.4913 12.5933 92.2698 13.1628C92.0483 13.7218 91.9375 14.3546 91.9375 15.0613C91.9375 15.2195 91.9428 15.3988 91.9534 15.5992C91.9745 15.7996 92.0008 16.0053 92.0325 16.2162C92.0747 16.4166 92.1221 16.6117 92.1749 16.8016C92.2276 16.9914 92.2962 17.1602 92.3805 17.3078L97.4115 10.6315Z" fill="#3D3D3D"/>
<path d="M108.503 23.6836H104.184V6.73962H105.228L106.652 8.74885C107.348 8.11602 108.139 7.63085 109.025 7.29334C109.911 6.94529 110.829 6.77126 111.778 6.77126H115.591V11.0745H111.778C111.324 11.0745 110.897 11.1589 110.496 11.3276C110.096 11.4964 109.748 11.7284 109.452 12.0237C109.157 12.3191 108.925 12.6671 108.756 13.0679C108.587 13.4687 108.503 13.8958 108.503 14.3494V23.6836Z" fill="#3D3D3D"/>
</svg>
