<svg width="57" height="80" viewBox="0 0 57 80" fill="none" xmlns="http://www.w3.org/2000/svg">
<path d="M5.15797 73.5746L0 15.7219H56.6772L51.5138 73.5655L28.3039 80L5.15797 73.5746Z" fill="#3D3D3D"/>
<path d="M47.0933 69.8821L51.5058 20.4521H28.3386V75.0817L47.0933 69.8821Z" fill="#3D3D3D"/>
<path d="M11.8245 41.9089L12.4605 49.0042H28.3386V41.9089H11.8245Z" fill="#EDE8DA"/>
<path d="M11.1917 34.6431H28.3386V27.5476H28.3141H10.5467L11.1917 34.6431Z" fill="#EDE8DA"/>
<path d="M28.3059 67.7276L28.3386 67.7186V60.3364L28.3075 60.3447L20.4053 58.2109L19.9002 52.552H16.0603H12.7775L13.7716 63.6928L28.3059 67.7276Z" fill="#EDE8DA"/>
<path d="M13.3386 0H21.9323V3.59375H16.9323V7.1875H21.9323V10.7812H13.3386V0Z" fill="#3D3D3D"/>
<path d="M23.6511 0H32.2448V3.125H27.2448V3.75H32.2448V10.9375H23.6511V7.65625H28.6511V7.03125H23.6511V0Z" fill="#3D3D3D"/>
<path d="M33.9636 0H42.5573V3.125H37.5573V3.75H42.5573V10.9375H33.9636V7.65625H38.9636V7.03125H33.9636V0Z" fill="#3D3D3D"/>
<path d="M46.0881 27.5476H28.3141V34.6431H38.3122L37.6666 41.9089H28.3141V49.0042H37.0512L36.2276 58.2064L28.3141 60.3423V67.7242L42.86 63.6928L42.9667 62.494L44.6341 43.8142L44.8072 41.9089L46.0881 27.5476Z" fill="#EDE8DA"/>
</svg>
