<svg width="501" height="94" viewBox="0 0 501 94" fill="none" xmlns="http://www.w3.org/2000/svg">
<g clip-path="url(#clip0_46_352)">
<path d="M0.6521 69.6899V0.764648H25.0516C33.292 0.764648 40.4602 2.1891 46.5563 5.03801C52.683 7.88692 57.4312 11.8999 60.8008 17.077C64.2011 22.2234 65.9013 28.2735 65.9013 35.2273C65.9013 42.1504 64.2011 48.2006 60.8008 53.3776C57.4312 58.5546 52.683 62.5676 46.5563 65.4165C40.4602 68.2654 33.292 69.6899 25.0516 69.6899H0.6521ZM18.8484 53.8371H25.649C30.3053 53.8371 34.2417 53.1172 37.4582 51.6774C40.6747 50.2377 43.11 48.1393 44.7642 45.3823C46.4491 42.5946 47.2915 39.2096 47.2915 35.2273C47.2915 31.2143 46.4491 27.8293 44.7642 25.0723C43.11 22.3153 40.6747 20.2169 37.4582 18.7771C34.2417 17.3374 30.3053 16.6175 25.649 16.6175H18.8484V53.8371Z" fill="#D8D8D8"/>
<path d="M88.3268 69.6894H71.3712V23.7393H86.0752L86.6266 30.9534C88.1583 28.3802 90.1495 26.3891 92.6002 24.9799C95.0508 23.5401 97.8538 22.8203 101.009 22.8203C102.081 22.8203 103.169 22.9122 104.272 23.096C105.374 23.2491 106.492 23.4942 107.626 23.8312L105.512 39.0866C103.276 38.3514 101.193 37.9838 99.2629 37.9838C97.0267 37.9838 95.0815 38.4586 93.4273 39.4083C91.8037 40.3273 90.5477 41.6292 89.6594 43.314C88.771 44.9989 88.3268 47.0053 88.3268 49.3335V69.6894Z" fill="#D8D8D8"/>
<path d="M152.797 69.6894H137.955L137.128 64.6349C135.443 66.5648 133.406 68.0505 131.016 69.092C128.627 70.103 126.023 70.6084 123.205 70.6084C120.05 70.6084 117.247 70.0111 114.796 68.8163C112.345 67.591 110.415 65.9215 109.006 63.8078C107.597 61.6634 106.892 59.2281 106.892 56.5017C106.892 53.6222 107.658 51.0949 109.19 48.9199C110.722 46.745 112.835 45.0448 115.531 43.8195C118.257 42.5635 121.367 41.9355 124.859 41.9355C126.758 41.9355 128.627 42.1346 130.465 42.5329C132.303 42.9005 134.095 43.4519 135.841 44.1871V43.4519C135.841 42.0427 135.382 40.8021 134.463 39.7299C133.574 38.6577 132.318 37.8153 130.695 37.2027C129.102 36.59 127.279 36.2836 125.227 36.2836C123.144 36.2836 121.122 36.59 119.161 37.2027C117.231 37.8153 115.5 38.6884 113.969 39.8218L109.65 27.3693C113.019 25.8683 116.358 24.7348 119.667 23.969C122.975 23.2032 126.146 22.8203 129.178 22.8203C133.988 22.8203 138.154 23.7546 141.677 25.6232C145.23 27.4612 147.972 30.0804 149.902 33.4807C151.832 36.8504 152.797 40.8327 152.797 45.4277V69.6894ZM127.111 58.2478C128.489 58.2478 129.837 57.9415 131.154 57.3288C132.502 56.7161 133.605 55.935 134.463 54.9854C135.32 54.0357 135.749 53.0708 135.749 52.0905V52.0445C134.646 51.4012 133.421 50.9111 132.073 50.5741C130.725 50.2065 129.377 50.0227 128.03 50.0227C126.1 50.0227 124.568 50.3903 123.435 51.1255C122.332 51.8301 121.78 52.8104 121.78 54.0664C121.78 54.8628 122.01 55.5827 122.47 56.226C122.929 56.8693 123.557 57.3748 124.354 57.7424C125.181 58.0793 126.1 58.2478 127.111 58.2478Z" fill="#D8D8D8"/>
<path d="M218.369 69.6894H199.07L193.74 45.8413L188.41 69.6894H169.111L154.177 23.7393H172.098L178.485 52.6419L186.48 23.7393H201L208.996 52.8257L215.383 23.7393H233.303L218.369 69.6894Z" fill="#D8D8D8"/>
<path d="M272.225 68.4031C268.365 69.8735 264.643 70.6087 261.059 70.6087C257.168 70.6087 253.738 69.7968 250.766 68.1732C247.795 66.5497 245.466 64.2982 243.782 61.4187C242.127 58.5085 241.3 55.1541 241.3 51.3556V38.8572H233.259V23.7396H242.219V12.252H258.256V23.7396H270.341V38.8572H258.256V48.2769C258.256 50.6357 258.915 52.4278 260.232 53.6531C261.549 54.8478 263.096 55.4452 264.873 55.4452C266.68 55.4452 268.426 54.8631 270.111 53.6991L272.225 68.4031Z" fill="#D8D8D8"/>
<path d="M276.316 69.6899V0.764648H293.272V28.151C296.488 24.5975 300.823 22.8208 306.276 22.8208C311.851 22.8208 316.201 24.5975 319.325 28.151C322.481 31.6738 324.058 36.5905 324.058 42.901V69.6899H307.103V47.5419C307.103 44.4786 306.505 42.1198 305.311 40.4656C304.147 38.8114 302.477 37.9843 300.302 37.9843C298.066 37.9843 296.335 38.8267 295.11 40.5116C293.884 42.1658 293.272 44.5092 293.272 47.5419V69.6899H276.316Z" fill="#D8D8D8"/>
<path d="M338.948 15.1006C336.896 15.1006 335.165 14.3807 333.756 12.941C332.347 11.5012 331.642 9.7551 331.642 7.70266C331.642 5.65022 332.347 3.90412 333.756 2.46434C335.165 1.02457 336.896 0.304688 338.948 0.304688C341.031 0.304688 342.777 1.02457 344.186 2.46434C345.626 3.90412 346.346 5.65022 346.346 7.70266C346.346 9.7551 345.626 11.5012 344.186 12.941C342.777 14.3807 341.031 15.1006 338.948 15.1006ZM347.449 69.6894H330.493V23.7393H347.449V69.6894Z" fill="#D8D8D8"/>
<path d="M402.545 69.6894H385.589V47.5414C385.589 44.4781 384.992 42.1193 383.797 40.4651C382.633 38.8109 380.964 37.9838 378.789 37.9838C376.552 37.9838 374.822 38.8262 373.596 40.5111C372.371 42.1653 371.758 44.5087 371.758 47.5414V69.6894H354.803V23.7393H368.22L368.772 31.0453C370.395 28.3496 372.509 26.3125 375.113 24.934C377.747 23.5248 380.826 22.8203 384.349 22.8203C390.046 22.8203 394.504 24.597 397.72 28.1505C400.937 31.6733 402.545 36.59 402.545 42.9005V69.6894Z" fill="#D8D8D8"/>
<path d="M427.314 70.6084C423.332 70.6084 419.778 69.5822 416.653 67.5297C413.559 65.4467 411.124 62.6131 409.347 59.029C407.571 55.4142 406.682 51.3093 406.682 46.7143C406.682 42.0887 407.571 37.9838 409.347 34.3997C411.124 30.8156 413.559 27.9973 416.653 25.9449C419.778 23.8618 423.332 22.8203 427.314 22.8203C430.347 22.8203 433.134 23.4329 435.677 24.6583C438.25 25.8836 440.456 27.5838 442.294 29.7587L443.075 23.7393H457.917V68.3568C457.917 73.3807 456.737 77.7919 454.378 81.5905C452.02 85.389 448.727 88.3298 444.499 90.4129C440.272 92.5266 435.34 93.5835 429.703 93.5835C422.014 93.5835 414.861 91.2706 408.245 86.645L414.907 72.7221C418.89 76.5207 423.377 78.4199 428.371 78.4199C430.821 78.4199 432.981 77.9604 434.85 77.0414C436.749 76.1224 438.235 74.8358 439.307 73.1816C440.41 71.558 440.961 69.7047 440.961 67.6216V65.0944C439.184 66.8405 437.132 68.2037 434.804 69.1839C432.506 70.1336 430.01 70.6084 427.314 70.6084ZM432.552 55.4449C434.114 55.4449 435.524 55.1232 436.78 54.4799C438.066 53.806 439.077 52.8716 439.812 51.6769C440.578 50.4822 440.961 49.1191 440.961 47.5874V45.7034C440.961 44.2024 440.578 42.8698 439.812 41.7058C439.046 40.5417 438.02 39.638 436.734 38.9947C435.478 38.3208 434.084 37.9838 432.552 37.9838C430.929 37.9838 429.474 38.3667 428.187 39.1326C426.9 39.8678 425.889 40.894 425.154 42.2112C424.419 43.5285 424.051 45.0295 424.051 46.7143C424.051 48.3992 424.419 49.9002 425.154 51.2174C425.889 52.5347 426.9 53.5762 428.187 54.3421C429.474 55.0773 430.929 55.4449 432.552 55.4449Z" fill="#D8D8D8"/>
<path d="M461.594 65.7836L465.087 51.8148C465.914 52.7951 467.139 53.7447 468.763 54.6637C470.417 55.5827 472.209 56.3332 474.139 56.9153C476.069 57.4667 477.846 57.7424 479.469 57.7424C480.694 57.7424 481.629 57.5586 482.272 57.191C482.915 56.8234 483.237 56.3026 483.237 55.6287C483.237 54.9241 482.931 54.3267 482.318 53.8366C481.705 53.3158 480.878 52.841 479.837 52.4121C478.826 51.9833 477.662 51.5391 476.344 51.0796C474.384 50.375 472.316 49.5173 470.141 48.5064C467.997 47.4648 466.174 46.0557 464.673 44.279C463.172 42.4716 462.422 40.0669 462.422 37.0648C462.422 34.1546 463.187 31.6427 464.719 29.529C466.281 27.3846 468.472 25.7304 471.29 24.5664C474.139 23.4023 477.478 22.8203 481.307 22.8203C487.709 22.8203 494.158 24.4285 500.652 27.645L495.919 40.557C494.939 39.6993 493.652 38.8875 492.059 38.1217C490.466 37.3558 488.828 36.7278 487.143 36.2377C485.489 35.7476 484.049 35.5025 482.823 35.5025C481.813 35.5025 481.047 35.6863 480.526 36.0539C480.036 36.3909 479.791 36.8657 479.791 37.4784C479.791 38.1523 480.082 38.7496 480.664 39.2704C481.276 39.7605 482.088 40.22 483.099 40.6489C484.141 41.0471 485.274 41.476 486.499 41.9355C488.552 42.6401 490.666 43.5131 492.841 44.5547C495.016 45.5656 496.854 46.9747 498.355 48.7821C499.886 50.5588 500.652 52.9635 500.652 55.9963C500.652 58.9677 499.825 61.5562 498.171 63.7618C496.547 65.9368 494.234 67.6216 491.232 68.8163C488.261 70.0111 484.738 70.6084 480.664 70.6084C473.863 70.6084 467.507 69.0001 461.594 65.7836Z" fill="#D8D8D8"/>
</g>
<defs>
<clipPath id="clip0_46_352">
<rect width="501" height="94" fill="white"/>
</clipPath>
</defs>
</svg>
