<svg width="101" height="38" viewBox="0 0 101 38" fill="none" xmlns="http://www.w3.org/2000/svg">
<path d="M99.9856 27.6274C99.8137 25.9555 98.3137 26.5649 98.3137 26.5649C98.3137 26.5649 95.8762 28.4555 93.7356 28.2368C91.5949 28.0336 92.2668 23.2368 92.2668 23.2368C92.2668 23.2368 92.7356 18.8461 91.4699 18.4868C90.2043 18.1118 88.6574 19.6274 88.6574 19.6274C88.6574 19.6274 86.7199 21.768 85.7981 24.5024L85.5481 24.5805C85.5481 24.5805 85.8449 19.7993 85.5012 18.7055C85.2512 18.1586 82.9387 18.2055 82.5637 19.1743C82.1887 20.143 80.3449 26.8618 80.2199 29.6743C80.2199 29.6743 76.6106 32.7368 73.4543 33.2368C70.2981 33.7368 69.5481 31.768 69.5481 31.768C69.5481 31.768 78.1106 29.3774 77.8137 22.5336C77.5168 15.6899 70.9074 18.2211 70.1574 18.7836C69.4387 19.3305 65.5637 21.6586 64.4387 28.1118C64.4074 28.3305 64.3293 29.2836 64.3293 29.2836C64.3293 29.2836 61.0168 31.5024 59.1731 32.0961C59.1731 32.0961 64.3293 23.4086 58.0324 19.4555C55.1731 17.7368 52.9074 21.3461 52.9074 21.3461C52.9074 21.3461 61.4231 11.8618 59.5481 3.84615C58.6418 0.0336477 56.7356 -0.388227 54.9856 0.236773C52.3293 1.28365 51.3137 2.84615 51.3137 2.84615C51.3137 2.84615 47.8762 7.84615 47.0793 15.268C46.2824 22.6899 45.1106 31.6899 45.1106 31.6899C45.1106 31.6899 43.4699 33.2836 41.9543 33.3618C40.4387 33.4399 41.1106 28.8774 41.1106 28.8774C41.1106 28.8774 42.2824 21.9086 42.2043 20.7368C42.1262 19.5649 42.0324 18.9243 40.6574 18.518C39.2668 18.0961 37.7668 19.8618 37.7668 19.8618C37.7668 19.8618 33.7824 25.9086 33.4387 26.8305L33.2356 27.2055L33.0324 26.9555C33.0324 26.9555 35.8449 18.7211 33.1574 18.5961C30.4699 18.4711 28.7043 21.5336 28.7043 21.5336C28.7043 21.5336 25.6418 26.6586 25.5168 27.2368L25.3137 26.9868C25.3137 26.9868 26.5793 21.018 26.3137 19.5493C26.0637 18.0805 24.6731 18.3774 24.6731 18.3774C24.6731 18.3774 22.9074 18.1743 22.4543 19.2993C22.0012 20.4243 20.3137 27.9399 20.1106 30.3461C20.1106 30.3461 15.7043 33.5024 12.7981 33.5336C9.90743 33.5805 10.1887 31.6899 10.1887 31.6899C10.1887 31.6899 20.8137 28.0493 17.9074 20.8774C16.6106 19.0336 15.0949 18.4555 12.9543 18.4868C10.8137 18.5336 8.21993 19.8305 6.50118 23.6899C5.67305 25.5336 5.43868 27.2836 5.28243 28.6118C5.28243 28.6118 3.36055 28.9868 2.34493 28.1586C1.3293 27.3305 0.782428 28.1586 0.782428 28.1586C0.782428 28.1586 -0.967572 30.3461 0.766803 31.018C2.50118 31.6899 5.15743 31.9711 5.15743 31.9711C5.40743 33.143 6.12618 35.018 8.21993 36.6118C11.3762 39.0024 17.4074 36.4086 17.4074 36.4086L19.8918 35.0336C19.8918 35.0336 19.9699 37.3149 21.7824 37.643C23.5949 37.9711 24.3449 37.7993 27.4856 30.1586C29.3293 26.2524 29.4543 26.4711 29.4543 26.4711L29.6574 26.4243C29.6574 26.4243 28.2356 33.7368 28.7824 35.7524C29.3293 37.7524 31.7199 37.5336 31.7199 37.5336C31.7199 37.5336 33.0168 37.9086 34.0637 34.2211C35.1106 30.5336 37.1262 26.4243 37.1262 26.4243H37.3762C37.3762 26.4243 36.5012 33.9399 37.8449 36.3774C39.1887 38.8149 42.6731 37.2055 42.6731 37.2055C42.6731 37.2055 45.1106 35.9868 45.4856 35.6118C45.4856 35.6118 48.3762 38.0805 52.4543 37.6274C61.5637 35.8305 64.8137 33.5805 64.8137 33.5805C64.8137 33.5805 66.3762 37.393 71.2356 37.7524C76.7824 38.1743 79.7981 34.8461 79.7981 34.8461C79.7981 34.8461 79.7512 36.9555 81.6887 37.7524C83.6262 38.5493 84.9231 34.1899 84.9231 34.1899L88.1574 25.2524H88.4543C88.4543 25.2524 88.6262 31.0805 91.8137 32.0024C95.0012 32.9243 99.1574 29.8618 99.1574 29.8618C99.1574 29.8618 100.157 29.3149 99.9856 27.6274ZM9.67305 28.4555C9.79805 23.4555 13.0793 21.2836 14.2043 22.3618C15.3449 23.4555 14.9231 25.7993 12.7824 27.268C10.6418 28.7524 9.67305 28.4555 9.67305 28.4555ZM52.2981 9.11177C52.2981 9.11177 55.2824 1.34615 55.9856 5.1274C56.6887 8.90865 49.7356 20.1586 49.7356 20.1586C49.8137 17.6274 52.2981 9.11177 52.2981 9.11177ZM55.8606 30.7368C53.8918 35.893 49.0949 33.7993 49.0949 33.7993C49.0949 33.7993 48.5481 31.9555 50.0949 26.7836C51.6418 21.6118 55.2981 23.6274 55.2981 23.6274C55.2981 23.6274 57.8293 25.5649 55.8606 30.7368ZM69.0793 28.4555C69.0793 28.4555 68.6106 26.8149 70.3449 23.6743C72.0637 20.518 73.4074 22.2524 73.4074 22.2524C73.4074 22.2524 74.8762 23.8461 73.2043 26.2368C71.5324 28.6274 69.0793 28.4555 69.0793 28.4555Z" fill="#3D3D3D"/>
</svg>
