<svg width="100" height="28" viewBox="0 0 100 28" fill="none" xmlns="http://www.w3.org/2000/svg">
<g clip-path="url(#clip0_90_44)">
<path d="M24.1724 0.0229492V21.2597L26.8998 21.2701V11.1618H33.4895V8.48641H26.8998V2.69836H35.4778V0.0229492H24.1724ZM40.4018 4.33276C41.3908 4.33276 42.1819 3.53117 42.1819 2.55262C42.1819 1.57406 41.3804 0.772481 40.4018 0.772481C39.4128 0.772481 38.6217 1.57406 38.6217 2.55262C38.6217 3.53117 39.4232 4.33276 40.4018 4.33276ZM39.0173 7.00817V21.2597H41.7447V7.00817H39.0173Z" fill="#3D3D3D"/>
<path fill-rule="evenodd" clip-rule="evenodd" d="M51.8738 6.5918C48.2407 6.5918 45.711 9.66279 45.711 13.3063C45.711 16.9499 48.2407 20.0209 51.8738 20.0209C53.5394 20.0209 54.9032 19.3755 55.9025 18.3345V20.2187C55.9025 22.5818 54.0495 24.5493 51.624 24.5493C50.7495 24.5493 49.8855 24.2162 49.1984 23.7373L47.8243 26.1108C48.9173 26.8187 50.2186 27.2247 51.6136 27.2247C55.4861 27.2247 58.6196 24.0913 58.6196 20.2187V7.0082H55.9025V8.27824C54.9032 7.23723 53.5394 6.5918 51.8738 6.5918ZM48.4489 13.3063C48.4489 11.0473 50.177 9.26721 52.1757 9.26721C54.1745 9.26721 55.9025 11.0473 55.9025 13.3063C55.9025 15.5654 54.1745 17.3455 52.1757 17.3455C50.177 17.3455 48.4489 15.5654 48.4489 13.3063Z" fill="#3D3D3D"/>
<path d="M68.478 9.26721C66.8645 9.26721 65.5528 10.6413 65.5528 12.2549V21.2597H62.8253V7.0082H65.5528V8.30947C66.3544 7.27887 67.5307 6.5918 69.0714 6.5918C70.9869 6.5918 72.4547 7.53912 73.3084 8.99654C74.2557 7.59117 75.7964 6.5918 77.6598 6.5918C80.7724 6.5918 82.7087 9.10065 82.7191 12.2029V21.2597H79.9917V12.2445C79.9917 10.6309 78.68 9.2568 77.0664 9.2568C75.4528 9.2568 74.1412 10.6309 74.1412 12.2445V21.2597H71.4137V12.2445C71.4033 10.6309 70.0916 9.26721 68.478 9.26721Z" fill="#3D3D3D"/>
<path fill-rule="evenodd" clip-rule="evenodd" d="M97.2725 8.62178C96.0545 7.36215 94.3889 6.5918 92.463 6.5918C88.4031 6.5918 85.509 10.0376 85.509 14.1392C85.509 18.2408 88.3926 21.6865 92.463 21.6865C94.3889 21.6865 96.0545 20.9058 97.2725 19.6565V21.2597H100V7.0082H97.2725V8.62178ZM88.2469 14.1392C88.2469 11.4221 90.3289 9.26721 92.7649 9.26721C95.1905 9.26721 97.2829 11.4117 97.2829 14.1392C97.2829 16.8562 95.2009 19.0111 92.7649 19.0111C90.3289 19.0007 88.2469 16.8562 88.2469 14.1392Z" fill="#3D3D3D"/>
<path d="M9.17133 13.7852C9.17133 11.2555 11.2221 9.19434 13.7622 9.19434C16.2919 9.19434 18.3531 11.2451 18.3531 13.7852C18.3531 16.3149 16.3023 18.3761 13.7622 18.3761C11.2325 18.3761 9.17133 16.3149 9.17133 13.7852Z" fill="#3D3D3D"/>
<path d="M0 22.9566C0 20.4269 2.0508 18.3657 4.59088 18.3657H9.18176V22.9566C9.18176 25.4863 7.13096 27.5475 4.59088 27.5475C2.0508 27.5475 0 25.4967 0 22.9566Z" fill="#3D3D3D"/>
<path d="M9.17133 0.0229834V9.19433H13.7622C16.2919 9.19433 18.3531 7.14353 18.3531 4.60345C18.3531 2.07378 16.3023 0.0125732 13.7622 0.0125732H9.17133V0.0229834Z" fill="#3D3D3D"/>
<path d="M0 4.61383C0 7.1435 2.0508 9.20471 4.59088 9.20471H9.18176V0.0229492H4.59088C2.0508 0.0229492 0 2.07375 0 4.61383Z" fill="#3D3D3D"/>
<path d="M0 13.7852C0 16.3149 2.0508 18.3761 4.59088 18.3761H9.18176V9.19434H4.59088C2.0508 9.19434 0 11.2555 0 13.7852Z" fill="#3D3D3D"/>
</g>
<defs>
<clipPath id="clip0_90_44">
<rect width="100" height="27.56" fill="white"/>
</clipPath>
</defs>
</svg>
