<svg width="100" height="33" viewBox="0 0 100 33" fill="none" xmlns="http://www.w3.org/2000/svg">
<path fill-rule="evenodd" clip-rule="evenodd" d="M10.929 10.7104H21.8579V0H0.218597V0.10929L10.929 10.7104Z" fill="#3D3D3D"/>
<path fill-rule="evenodd" clip-rule="evenodd" d="M10.929 10.7104H0V21.4208H21.6393V21.3115L10.929 10.7104Z" fill="#3D3D3D"/>
<path fill-rule="evenodd" clip-rule="evenodd" d="M0.109253 21.3115H10.9289V32.1312L0.109253 21.3115Z" fill="#3D3D3D"/>
<path d="M36.7213 21.3113V15.4097H43.1694V12.6774H36.7213V8.74302H43.7159V5.90149H33.5519V21.202H36.7213V21.3113Z" fill="#3D3D3D"/>
<path d="M51.8033 10.164C51.5847 10.0547 51.1476 9.94543 50.6011 9.94543C49.5082 9.94543 48.6339 10.4919 48.0875 11.2569V10.164H45.0273V21.3116H48.0875V14.4263C48.306 13.4427 49.1803 12.8963 50.164 12.8963C50.7104 12.8963 51.2568 13.0055 51.694 13.2241V10.164H51.8033Z" fill="#3D3D3D"/>
<path d="M62.0765 21.3116V14.2077C62.0765 11.5848 60.3279 9.94543 57.3771 9.94543C54.8634 9.94543 53.0055 11.4755 52.6776 13.552H55.6285C55.847 12.8963 56.3935 12.4591 57.2678 12.4591C58.47 12.4591 59.1257 13.2241 59.1257 14.2077V14.9728C58.6886 14.6449 57.5957 14.317 56.6121 14.317C54.2077 14.317 52.3498 15.7378 52.3498 17.9236C52.3498 20.2187 54.2077 21.5301 56.5028 21.5301C57.705 21.5301 58.7979 21.093 59.235 20.7651V21.3116H62.0765ZM59.1257 18.2514C58.7979 18.7979 58.0328 19.2351 57.1585 19.2351C56.1749 19.2351 55.1913 18.7979 55.1913 17.8143C55.1913 16.8307 56.1749 16.3935 57.1585 16.3935C58.0328 16.3935 58.9071 16.7214 59.1257 17.3771V18.2514Z" fill="#3D3D3D"/>
<path d="M73.0055 11.3662C72.3497 10.4919 71.3661 9.94543 70.0547 9.94543C68.8525 9.94543 67.7596 10.3826 67.2131 11.1476V10.2733H64.153V21.4208H67.2131V14.2077C67.4317 13.2241 68.1967 12.787 68.9618 12.787C70.0547 12.787 70.4918 13.552 70.4918 14.7542V21.4208H73.5519V14.2077C73.7705 13.2241 74.4262 12.787 75.3006 12.787C76.3934 12.787 76.9399 13.552 76.9399 14.7542V21.4208H80V14.0984C80 11.5848 78.5792 9.94543 76.2842 9.94543C74.8634 9.94543 73.7705 10.6012 73.0055 11.3662Z" fill="#3D3D3D"/>
<path d="M88.8525 17.705C88.6339 18.6886 87.8689 19.1258 86.776 19.1258C85.3552 19.1258 84.4809 18.1422 84.3716 16.5028H91.8033V15.5192C91.8033 12.2405 90.0547 9.94543 86.776 9.94543C83.7159 9.94543 81.4208 12.4591 81.4208 15.7378C81.4208 19.1258 83.6066 21.5301 86.776 21.5301C89.6175 21.5301 91.2568 20.0001 91.694 17.5957H88.8525V17.705ZM86.776 12.4591C88.0874 12.4591 88.7432 13.3334 88.7432 14.5356H84.4809C84.8088 13.2241 85.5738 12.4591 86.776 12.4591Z" fill="#3D3D3D"/>
<path d="M100 10.164C99.7814 10.0547 99.3442 9.94543 98.7978 9.94543C97.7049 9.94543 96.8306 10.4919 96.2841 11.2569V10.164H93.224V21.3116H96.2841V14.4263C96.5027 13.4427 97.377 12.8963 98.3606 12.8963C98.9071 12.8963 99.4535 13.0055 99.8907 13.2241V10.164H100Z" fill="#3D3D3D"/>
</svg>
