<svg width="1281" height="301" viewBox="0 0 1281 301" fill="none" xmlns="http://www.w3.org/2000/svg">
<path d="M0 87.7679C0 39.295 39.395 0 87.9913 0H266C266 48.4728 226.605 87.7679 178.009 87.7679H0Z" fill="#3D3D3D"/>
<path d="M0 99.3163H89.3401C137.936 99.3163 177.331 138.611 177.331 187.084H87.9913C39.395 187.084 0 147.789 0 99.3163Z" fill="#3D3D3D"/>
<path d="M0 242.853C0 218.431 19.8487 198.633 44.3333 198.633C68.818 198.633 88.6667 218.431 88.6667 242.853V251.779C88.6667 276.202 68.818 296 44.3333 296C19.8487 296 0 276.202 0 251.779V242.853Z" fill="#3D3D3D"/>
<path d="M194.6 296V101.6H255.8V296H194.6ZM255.8 189.2L230.2 169.2C235.267 146.533 243.8 128.933 255.8 116.4C267.8 103.867 284.467 97.6 305.8 97.6C315.133 97.6 323.267 99.0667 330.2 102C337.4 104.667 343.667 108.933 349 114.8L312.6 160.8C309.933 157.867 306.6 155.6 302.6 154C298.6 152.4 294.067 151.6 289 151.6C278.867 151.6 270.733 154.8 264.6 161.2C258.733 167.333 255.8 176.667 255.8 189.2Z" fill="#3D3D3D"/>
<path d="M420.8 300C402.933 300 386.933 295.6 372.8 286.8C358.933 278 347.867 266 339.6 250.8C331.6 235.6 327.6 218.267 327.6 198.8C327.6 179.333 331.6 162 339.6 146.8C347.867 131.6 358.933 119.6 372.8 110.8C386.933 102 402.933 97.6 420.8 97.6C433.867 97.6 445.6 100.133 456 105.2C466.667 110.267 475.333 117.333 482 126.4C488.667 135.2 492.4 145.333 493.2 156.8V240.8C492.4 252.267 488.667 262.533 482 271.6C475.6 280.4 467.067 287.333 456.4 292.4C445.733 297.467 433.867 300 420.8 300ZM433.2 244.8C446.267 244.8 456.8 240.533 464.8 232C472.8 223.2 476.8 212.133 476.8 198.8C476.8 189.733 474.933 181.733 471.2 174.8C467.733 167.867 462.667 162.533 456 158.8C449.6 154.8 442.133 152.8 433.6 152.8C425.067 152.8 417.467 154.8 410.8 158.8C404.4 162.533 399.2 167.867 395.2 174.8C391.467 181.733 389.6 189.733 389.6 198.8C389.6 207.6 391.467 215.467 395.2 222.4C398.933 229.333 404.133 234.8 410.8 238.8C417.467 242.8 424.933 244.8 433.2 244.8ZM474.4 296V243.6L483.6 196.4L474.4 149.2V101.6H534.4V296H474.4Z" fill="#3D3D3D"/>
<path d="M547.6 296V101.6H608.8V296H547.6ZM672 296V182.4C672 172.533 668.933 164.933 662.8 159.6C656.933 154 649.6 151.2 640.8 151.2C634.667 151.2 629.2 152.533 624.4 155.2C619.6 157.6 615.733 161.067 612.8 165.6C610.133 170.133 608.8 175.733 608.8 182.4L585.2 172C585.2 156.533 588.533 143.333 595.2 132.4C601.867 121.2 610.933 112.667 622.4 106.8C633.867 100.667 646.8 97.6 661.2 97.6C674.8 97.6 686.933 100.667 697.6 106.8C708.533 112.933 717.2 121.467 723.6 132.4C730 143.333 733.2 156.4 733.2 171.6V296H672ZM796.4 296V182.4C796.4 172.533 793.333 164.933 787.2 159.6C781.333 154 774 151.2 765.2 151.2C759.067 151.2 753.6 152.533 748.8 155.2C744 157.6 740.133 161.067 737.2 165.6C734.533 170.133 733.2 175.733 733.2 182.4L698 177.6C698.533 161.067 702.4 146.933 709.6 135.2C717.067 123.2 726.8 114 738.8 107.6C751.067 100.933 764.8 97.6 780 97.6C794.933 97.6 808.133 100.8 819.6 107.2C831.333 113.333 840.533 122.267 847.2 134C854.133 145.467 857.6 159.333 857.6 175.6V296H796.4Z" fill="#3D3D3D"/>
<path d="M973.6 300.4C952.533 300.4 933.733 296.133 917.2 287.6C900.933 278.8 888.133 266.667 878.8 251.2C869.467 235.733 864.8 218.267 864.8 198.8C864.8 179.333 869.333 162 878.4 146.8C887.733 131.333 900.267 119.2 916 110.4C931.733 101.6 949.467 97.2 969.2 97.2C988.4 97.2 1005.33 101.333 1020 109.6C1034.67 117.867 1046.13 129.333 1054.4 144C1062.93 158.667 1067.2 175.467 1067.2 194.4C1067.2 197.867 1066.93 201.6 1066.4 205.6C1066.13 209.333 1065.47 213.733 1064.4 218.8L896.8 219.2V177.2L1038.4 176.8L1012 194.4C1011.73 183.2 1010 174 1006.8 166.8C1003.6 159.333 998.8 153.733 992.4 150C986.267 146 978.667 144 969.6 144C960 144 951.6 146.267 944.4 150.8C937.467 155.067 932 161.2 928 169.2C924.267 177.2 922.4 186.933 922.4 198.4C922.4 209.867 924.4 219.733 928.4 228C932.667 236 938.533 242.267 946 246.8C953.733 251.067 962.8 253.2 973.2 253.2C982.8 253.2 991.467 251.6 999.2 248.4C1006.93 244.933 1013.73 239.867 1019.6 233.2L1053.2 266.8C1043.6 278 1032 286.4 1018.4 292C1004.8 297.6 989.867 300.4 973.6 300.4Z" fill="#3D3D3D"/>
<path d="M1168.4 296C1150 296 1133.6 291.6 1119.2 282.8C1105.07 274 1093.87 262 1085.6 246.8C1077.6 231.6 1073.6 214.267 1073.6 194.8C1073.6 175.333 1077.6 158 1085.6 142.8C1093.87 127.6 1105.07 115.6 1119.2 106.8C1133.6 98 1150 93.6 1168.4 93.6C1181.73 93.6 1193.73 96.1333 1204.4 101.2C1215.33 106.267 1224.27 113.333 1231.2 122.4C1238.4 131.2 1242.4 141.333 1243.2 152.8V234.8C1242.4 246.267 1238.53 256.667 1231.6 266C1224.67 275.067 1215.73 282.4 1204.8 288C1193.87 293.333 1181.73 296 1168.4 296ZM1179.2 240.8C1188 240.8 1195.6 238.933 1202 235.2C1208.4 231.2 1213.47 225.733 1217.2 218.8C1220.93 211.867 1222.8 203.867 1222.8 194.8C1222.8 185.733 1220.93 177.867 1217.2 171.2C1213.73 164.267 1208.67 158.8 1202 154.8C1195.6 150.8 1188.13 148.8 1179.6 148.8C1171.07 148.8 1163.47 150.8 1156.8 154.8C1150.4 158.8 1145.2 164.267 1141.2 171.2C1137.47 178.133 1135.6 186 1135.6 194.8C1135.6 203.6 1137.47 211.467 1141.2 218.4C1144.93 225.333 1150.13 230.8 1156.8 234.8C1163.47 238.8 1170.93 240.8 1179.2 240.8ZM1280.4 292H1220.4V239.6L1229.6 192.4L1219.2 145.2V1.6H1280.4V292Z" fill="#3D3D3D"/>
</svg>
