<svg width="100" height="42" viewBox="0 0 100 42" fill="none" xmlns="http://www.w3.org/2000/svg">
<g clip-path="url(#clip0_90_37)">
<path d="M59.9318 14.2166C57.7392 14.2166 56.1062 15.2932 56.1062 17.8844C56.1062 19.8367 57.1823 21.1919 59.8136 21.1919C62.0438 21.1919 63.5587 19.8779 63.5587 17.8037C63.5587 15.4532 62.2032 14.2166 59.9318 14.2166ZM55.5479 32.5121C55.0291 33.1489 54.5121 33.8255 54.5121 34.624C54.5121 36.217 56.5435 36.6963 59.3342 36.6963C61.6458 36.6963 64.7946 36.5344 64.7946 34.3852C64.7946 33.1078 63.2798 33.0287 61.3656 32.9087L55.5479 32.5121ZM67.3449 14.337C68.0611 15.2539 68.8194 16.5295 68.8194 18.3627C68.8194 22.7864 65.3519 25.3767 60.3316 25.3767C59.0548 25.3767 57.899 25.2176 57.1823 25.0187L55.8667 27.1306L59.772 27.3692C66.6676 27.8086 70.7313 28.0082 70.7313 33.3069C70.7313 37.8913 66.707 40.4806 59.772 40.4806C52.5585 40.4806 49.8086 38.647 49.8086 35.4991C49.8086 33.7049 50.6059 32.7505 52.0007 31.4334C50.6851 30.8773 50.2473 29.8815 50.2473 28.8049C50.2473 27.9275 50.6851 27.1306 51.4036 26.3729C52.1207 25.6164 52.9175 24.8581 53.8742 23.9816C51.9215 23.0253 50.4465 20.9527 50.4465 18.003C50.4465 13.4202 53.4758 10.2728 59.5723 10.2728C61.2864 10.2728 62.3231 10.4305 63.2399 10.6711H71.0121V14.0579L67.3449 14.337Z" fill="#3D3D3D"/>
<path d="M78.0235 7.09492C75.7512 7.09492 74.4365 5.77854 74.4365 3.50602C74.4365 1.23634 75.7512 -9.73292e-05 78.0235 -9.73292e-05C80.3352 -9.73292e-05 81.6504 1.23634 81.6504 3.50602C81.6504 5.77854 80.3352 7.09492 78.0235 7.09492ZM72.8813 31.0457V27.8987L74.9146 27.6206C75.4728 27.5397 75.552 27.4211 75.552 26.8219V15.1047C75.552 14.6672 75.433 14.387 75.0332 14.2684L72.8813 13.5106L73.3196 10.2835H81.5703V26.8219C81.5703 27.4607 81.6087 27.5397 82.2082 27.6206L84.241 27.8987V31.0457H72.8813Z" fill="#3D3D3D"/>
<path d="M100.001 29.5006C98.2868 30.3365 95.7764 31.0939 93.5037 31.0939C88.7613 31.0939 86.9684 29.1827 86.9684 24.6772V14.236C86.9684 13.9974 86.9684 13.8373 86.6483 13.8373H83.859V10.2904C87.3673 9.89082 88.7613 8.13687 89.1995 3.79291H92.9862V9.45418C92.9862 9.73214 92.9862 9.85254 93.3054 9.85254H98.9243V13.8373H92.9862V23.3619C92.9862 25.7136 93.5449 26.6295 95.6958 26.6295C96.8132 26.6295 97.9677 26.3514 98.9243 25.9923L100.001 29.5006Z" fill="#3D3D3D"/>
<path d="M40.9495 19.0417L22.7264 0.819891C21.6778 -0.229612 19.9757 -0.229612 18.9257 0.819891L15.1418 4.60411L19.9418 9.40427C21.0576 9.02752 22.3366 9.28012 23.2257 10.1693C24.1193 11.0641 24.3702 12.354 23.9839 13.4736L28.6102 18.0997C29.7295 17.7141 31.0208 17.9632 31.9145 18.8585C33.164 20.1077 33.164 22.1317 31.9145 23.3812C30.6648 24.6311 28.6408 24.6311 27.3906 23.3812C26.4511 22.441 26.2187 21.0606 26.6946 19.903L22.3801 15.5884L22.3797 26.942C22.6843 27.0928 22.9718 27.2941 23.2257 27.5468C24.4748 28.7958 24.4748 30.8195 23.2257 32.0704C21.9762 33.3194 19.9512 33.3194 18.703 32.0704C17.4537 30.8195 17.4537 28.7958 18.703 27.5468C19.0117 27.2386 19.369 27.0054 19.7502 26.849V15.39C19.369 15.2342 19.0123 15.0026 18.703 14.6922C17.7567 13.7466 17.5288 12.3578 18.0141 11.1958L13.2825 6.46325L0.787577 18.9575C-0.262281 20.0078 -0.262281 21.7099 0.787577 22.7596L19.0105 40.9814C20.0596 42.0309 21.7611 42.0309 22.8117 40.9814L40.9495 22.844C41.999 21.794 41.999 20.0914 40.9495 19.0417Z" fill="#3D3D3D"/>
</g>
<defs>
<clipPath id="clip0_90_37">
<rect width="100" height="41.7686" fill="white"/>
</clipPath>
</defs>
</svg>
