<svg width="183" height="166" viewBox="0 0 183 166" fill="none" xmlns="http://www.w3.org/2000/svg">
<path fill-rule="evenodd" clip-rule="evenodd" d="M96.075 93.7506V0H86.925V93.7506C86.925 104.92 95.9034 114.007 106.941 114.007V104.752C100.95 104.752 96.075 99.8147 96.075 93.7506ZM147.544 104.752C133.04 104.752 121.238 92.8097 121.238 78.1309C121.238 63.4521 133.04 51.5101 147.544 51.5101C162.048 51.5101 173.85 63.4521 173.85 78.1273C173.85 92.8097 162.048 104.752 147.544 104.752ZM147.544 42.2513C127.993 42.2513 112.088 58.3468 112.088 78.1309C112.088 97.915 127.993 114.014 147.544 114.014C167.095 114.014 183 97.915 183 78.1309C183 58.3468 167.095 42.2513 147.544 42.2513ZM61.7625 78.1309C61.7625 92.8097 49.9604 104.752 35.4563 104.752C20.9521 104.752 9.15 92.8097 9.15 78.1309C9.15 63.4521 20.9521 51.5101 35.4563 51.5101C49.9604 51.5101 61.7625 63.4556 61.7625 78.1309ZM70.9125 32.234H61.7625C61.7625 37.7543 57.3233 42.2477 51.8691 42.2477H35.4563C15.9053 42.2477 0 58.3433 0 78.1273C0 91.5111 7.28426 103.199 18.0462 109.367C15.2378 110.974 12.661 112.956 10.3867 115.259L16.856 121.806C19.2809 119.331 22.1755 117.367 25.3697 116.027C28.5638 114.688 31.9932 114.001 35.4563 114.007C42.4832 114.007 49.0883 116.776 54.0565 121.806C59.0156 126.81 61.7873 133.58 61.7625 140.628C61.7875 147.677 59.0158 154.448 54.0565 159.453L60.5258 166C67.2104 159.255 70.9463 150.129 70.9125 140.628C70.9453 131.128 67.2095 122.004 60.5258 115.259C58.2514 112.956 55.6746 110.974 52.8663 109.367C58.358 106.213 62.9197 101.663 66.0894 96.1773C69.2591 90.6914 70.9242 84.4646 70.9161 78.1273C70.9161 67.0082 65.8872 57.0553 58.0167 50.469C61.7914 49.1455 65.0609 46.6788 67.3717 43.4113C69.6825 40.1438 70.92 36.2374 70.9125 32.234Z" fill="#313530"/>
</svg>
