<svg width="58" height="81" viewBox="0 0 58 81" fill="none" xmlns="http://www.w3.org/2000/svg">
<g clip-path="url(#clip0_90_11)">
<path d="M5.51439 74.5043L0.357033 16.6567H57.029L51.8661 74.4952L28.6583 80.9292L5.51439 74.5043Z" fill="#3D3D3D"/>
<path d="M28.693 76.0112L47.446 70.8123L51.8581 21.3867H28.693V76.0112Z" fill="#3D3D3D"/>
<path d="M28.693 42.8414H19.3047L18.6563 35.5763H28.693V28.4814H10.9027L11.0725 30.3849L12.8162 49.9361H28.693V42.8414ZM28.693 61.2673L28.662 61.2756L20.7604 59.142L20.2553 53.4836H13.1332L14.1272 64.6234L28.6603 68.6579L28.693 68.6488V61.2673Z" fill="#EDE8DA"/>
<path d="M5.62968 0.936279H9.23514V4.49846H12.5333V0.936279H16.1389V11.7234H12.5334V8.11127H9.2353V11.7234H5.63V0.936279H5.62968ZM20.8802 4.51346H17.7063V0.936279H27.6616V4.51346H24.4861V11.7234H20.8805L20.8802 4.51346ZM29.2415 0.936279H33.0008L35.3135 4.72657L37.6239 0.936279H41.3848V11.7234H37.7942V6.37673L35.3136 10.2122H35.2517L32.7693 6.37673V11.7234H29.2416V0.936279H29.2415ZM43.1792 0.936279H46.7857V8.15783H51.856V11.7234H43.1792V0.936279Z" fill="#3D3D3D"/>
<path d="M28.6686 42.8414V49.9361H37.4048L36.5813 59.1375L28.6686 61.2732V68.6544L43.2131 64.6234L43.3198 63.4248L44.987 44.7466L45.1601 42.8414H43.2482H28.6686ZM28.6686 28.4814V35.5763H45.8057L45.948 33.9816L46.2712 30.3849L46.4409 28.4814H28.6686Z" fill="#EDE8DA"/>
</g>
<defs>
<clipPath id="clip0_90_11">
<rect width="56.672" height="80" fill="white" transform="translate(0.357033 0.932739)"/>
</clipPath>
</defs>
</svg>
