<svg width="1274" height="74" viewBox="0 0 1274 74" fill="none" xmlns="http://www.w3.org/2000/svg">
<path d="M47.9958 43.1523H13.3502V71.9268H0V1.63165H13.3502V30.5022H47.9958V1.63165H61.346V71.9268H47.9958V43.1523ZM164.844 1.63165V46.7419C164.844 63.2887 154.186 74 135.24 74C116.409 74 105.751 63.2887 105.751 46.7419V1.63165H119.101V46.07C119.101 55.2649 124.812 61.3115 135.24 61.3115C145.783 61.3115 151.493 55.2649 151.493 45.9549V1.63165H164.844ZM290.305 1.63165V71.9268H276.955V27.1429L252.317 71.9268H246.721L222.083 26.7206V71.9268H209.268V1.63165H222.618L250.063 50.1971L277.509 1.63165H290.305ZM371.304 71.9268H334.71V1.63165H370.445C385.628 1.63165 392.294 11.1528 392.294 19.2534C392.294 24.2252 390.136 28.9857 384.215 32.8825C392.829 36.1266 396.056 43.1523 396.056 50.6195C396.056 61.1196 388.627 71.9268 371.304 71.9268ZM348.061 13.7442V29.9647H370.12C376.365 29.9647 379.383 26.2791 379.383 21.4226C379.383 16.566 376.155 13.7442 370.12 13.7442H348.061ZM372.698 59.8143C378.619 59.8143 383.145 56.7813 383.145 50.5043C383.145 44.2272 378.734 41.0983 372.698 41.0983H348.061V59.8143H372.698ZM492.354 71.9268H437.043V1.63165H450.393V59.2768H492.373V71.9268H492.354ZM581.756 59.8143V71.9268H528.584V1.63165H580.878V13.7442H541.916V29.2161H571.404V41.3287H541.916V59.8335H581.756V59.8143ZM687.087 71.9268V1.63165H739.38V13.7442H700.418V29.2161H729.907V41.3287H700.418V71.946H687.087V71.9268ZM835.372 71.9268H780.061V1.63165H793.411V59.2768H835.391V71.9268H835.372ZM943.071 36.7792C943.071 58.2978 927.257 73.5585 905.198 73.5585C883.139 73.5585 867.325 58.317 867.325 36.7792C867.306 15.2607 883.12 0 905.179 0C927.238 0 943.071 15.2607 943.071 36.7792ZM929.721 36.7792C929.721 22.1712 919.828 12.6693 905.179 12.6693C890.53 12.6693 880.637 22.1904 880.637 36.7792C880.637 51.3873 890.53 60.9084 905.179 60.9084C919.828 60.9084 929.721 51.3873 929.721 36.7792ZM1013.85 1.63165L1022.47 20.3476L1031.08 1.63165H1043.46L1028.62 33.6503L1036.79 51.5025L1056.6 1.65084H1071.02L1042.04 71.9268H1034.08L1022.45 46.8379L1010.82 71.9268H1002.85L973.916 1.63165H988.336L1008.14 51.4833L1016.32 33.6311L1001.46 1.61245H1013.85V1.63165ZM1163.93 59.8143V71.9268H1110.76V1.63165H1163.05V13.7442H1124.09V29.2161H1153.58V41.3287H1124.09V59.8335H1163.93V59.8143ZM1269.59 23.4765C1269.59 34.399 1264.32 41.8661 1253.87 44.4576L1274 71.9268H1257.96L1238.59 45.5326H1223.2V71.9268H1210.29V1.63165H1244.72C1261.51 1.63165 1269.59 9.7323 1269.59 23.4765ZM1256.68 23.5725C1256.68 16.9691 1252.38 13.725 1245.16 13.725H1223.22V33.3048H1245.16C1252.06 33.324 1256.68 30.0799 1256.68 23.5725Z" fill="#313530"/>
</svg>
