<svg width="100" height="29" viewBox="0 0 100 29" fill="none" xmlns="http://www.w3.org/2000/svg">
<g clip-path="url(#clip0_91_82)">
<path d="M51.8491 4.50879H48.2031C48.0013 4.50879 47.7995 4.67107 47.7566 4.86844L45.1675 16.8421C45.142 16.9421 45.0847 17.031 45.0044 17.0958C44.9241 17.1605 44.825 17.1976 44.7219 17.2013H42.1403C39.5877 17.2013 39.8824 15.4355 40.4052 13.0158L40.421 12.9426L40.7307 11.2934L40.864 10.6154L42.0412 4.86976C42.082 4.67151 41.9535 4.50879 41.7474 4.50879H38.0044C37.8026 4.50879 37.6017 4.67107 37.5605 4.86932L35.9517 12.5C35.9504 12.5057 35.8754 12.8605 35.8754 12.8605C34.9487 17.0921 35.1943 21.1281 40.232 21.254L40.3781 21.257H48.286C48.3891 21.253 48.4881 21.2157 48.5683 21.1507C48.6484 21.0857 48.7054 20.9966 48.7307 20.8965L52.1412 4.86493C52.1533 4.82123 52.1548 4.77527 52.1455 4.73088C52.1363 4.68649 52.1166 4.64494 52.0881 4.60969C52.0595 4.57443 52.023 4.54649 51.9815 4.52818C51.9401 4.50987 51.8948 4.50172 51.8495 4.50441L51.8491 4.50879ZM66.3947 17.2478C66.5974 17.2478 66.7298 17.4101 66.6886 17.6084L66.3342 19.3386M65.9816 21.0702L66.3355 19.3386L65.9811 21.0711L65.9816 21.0702Z" fill="#3D3D3D"/>
<path d="M56.643 15.0189C56.6399 14.8294 56.8557 14.5031 57.0583 14.5031L56.6031 14.4956C56.3978 16.5592 56.6469 15.0193 56.6469 15.0193L56.643 15.0189ZM66.3947 17.2478C66.5974 17.2478 66.7298 17.4101 66.6886 17.6083L66.2763 19.6259" fill="#3D3D3D"/>
<path d="M65.9816 21.071L66.2781 19.621L65.9811 21.0719L65.9816 21.071ZM6.01755 15.0622L6.58772 12.5517L5.94035 15.4219L5.31886 18.3451L5.8636 15.7824L6.02149 15.0622H6.01755ZM12.7969 4.46663H8.79255C8.68914 4.47084 8.58977 4.50788 8.50886 4.5724C8.42794 4.63691 8.36968 4.72553 8.34255 4.8254L7.58377 8.17759C7.57116 8.22084 7.56914 8.26648 7.57788 8.31067C7.58662 8.35486 7.60587 8.3963 7.634 8.43149C7.66213 8.46667 7.69832 8.49457 7.7395 8.51282C7.78068 8.53108 7.82565 8.53915 7.87062 8.53636H11.9057C12.009 8.53223 12.1082 8.49505 12.1887 8.43031C12.2692 8.36556 12.3269 8.27667 12.3531 8.17671L13.0868 4.82584C13.1298 4.62847 13 4.46619 12.7974 4.46619L12.7969 4.46663ZM11.9298 10.0416V10.0412L10.7553 15.4745L11.9298 10.0416ZM0.292984 28.0438L3.59474 28.0701C2.49353 28.0666 1.39235 28.0577 0.291229 28.0434L0.292984 28.0438ZM7.15044 10.0407L6.57895 12.5517L7.14605 10.0412L7.15044 10.0407Z" fill="#3D3D3D"/>
<path d="M11.636 9.68156H7.60001C7.39826 9.68156 7.19519 9.84384 7.15089 10.0412L6.01756 15.0631L5.85966 15.7833L4.77063 20.9088C4.71729 21.148 4.65245 21.3845 4.57633 21.6175C4.57633 21.6175 3.82194 23.861 2.55878 23.8355L1.29826 23.8158C1.19517 23.8183 1.0956 23.8537 1.01414 23.917C0.932684 23.9802 0.873625 24.0678 0.845627 24.1671L0.00878464 27.6798C-0.00431995 27.7228 -0.00691469 27.7683 0.00121853 27.8125C0.00935174 27.8567 0.0279752 27.8983 0.0555235 27.9338C0.0830717 27.9693 0.11874 27.9976 0.159529 28.0165C0.200318 28.0353 0.245036 28.0441 0.289925 28.0421L3.59343 28.0684C6.7601 28.0684 8.42852 26.314 9.49826 21.2702L11.9298 10.0438C11.9724 9.84648 11.8421 9.6842 11.6395 9.6842L11.636 9.68156ZM68.9662 21.2614C68.921 21.264 68.8758 21.2558 68.8344 21.2375C68.793 21.2191 68.7565 21.1912 68.728 21.1559C68.6996 21.1207 68.6799 21.0792 68.6707 21.0348C68.6615 20.9904 68.6629 20.9445 68.675 20.9009L71.7105 6.67981" fill="#3D3D3D"/>
<path d="M68.7193 21.0811C68.6947 20.982 68.7092 20.739 68.7522 20.5408L70.193 13.7864L68.6754 20.8916C68.6634 20.9353 68.6619 20.9811 68.6711 21.0255C68.6803 21.0698 68.6999 21.1113 68.7283 21.1465C68.7568 21.1817 68.7932 21.2097 68.8345 21.2281C68.8759 21.2464 68.921 21.2547 68.9662 21.2522H69.3347C69.132 21.2522 68.7439 21.171 68.7193 21.0767V21.0811Z" fill="#3D3D3D"/>
<path d="M72.9461 21.1843C72.8364 21.229 72.5798 21.2654 72.3772 21.2654H72.7456C72.9474 21.2654 73.1469 21.1031 73.1868 20.9044L73.2601 20.5439C73.2197 20.7422 73.0566 21.1404 72.9461 21.1843Z" fill="#3D3D3D"/>
<path d="M85.7798 7.63288L85.9465 8.32367C85.9926 8.52104 85.8649 8.682 85.6627 8.68244M74.3421 15.1912L74.4912 14.4754L75.0702 11.7636L74.4145 14.8355L74.3421 15.1912Z" fill="#3D3D3D"/>
<path d="M71.761 6.44738L71.6351 7.04036L70.1943 13.7947L71.761 6.45176V6.44738ZM85.9461 8.32457L85.7794 7.63378L85.5303 6.56799C85.2026 5.29431 84.2408 4.55922 82.1509 4.55922L78.8978 4.55571L75.9022 4.5522H72.5311C72.4282 4.55629 72.3294 4.5935 72.2493 4.65831C72.1693 4.72311 72.1123 4.81204 72.0869 4.91185L71.7127 6.68115L68.754 20.5417C68.711 20.7399 68.6969 20.9829 68.7211 21.082C68.7452 21.1812 69.1333 21.2575 69.3364 21.2575H72.3776C72.5803 21.2575 72.8364 21.2211 72.9465 21.1763C73.0566 21.1316 73.2202 20.7342 73.2605 20.536L74.4154 14.8272L75.65 9.03773C75.6756 8.93808 75.7327 8.84935 75.8127 8.78471C75.8927 8.72008 75.9915 8.68299 76.0943 8.67896L85.6632 8.67457C85.8649 8.67413 85.993 8.5136 85.9469 8.3158L85.9461 8.32457ZM98.2645 2.07589L97.5276 2.07852H94.4649C94.3527 2.08497 94.2432 2.11544 94.1437 2.16788C94.0443 2.22032 93.9573 2.2935 93.8886 2.38246L87.1167 12.3044C87.0026 12.4719 86.8719 12.4469 86.8272 12.25L86.329 10.064C86.3018 9.96418 86.2436 9.87556 86.1626 9.81105C86.0817 9.74653 85.9824 9.70948 85.879 9.70527H81.525C81.3224 9.70527 81.2026 9.86404 81.2618 10.0588L83.2127 16.8934C83.2687 17.1266 83.272 17.3693 83.2224 17.604L82.3715 20.9119C82.3211 21.1083 82.4461 21.2689 82.6478 21.2689H86.9461C87.1478 21.2689 87.3553 21.1083 87.4053 20.9119L88.2561 17.604C88.3061 17.4079 88.4474 17.1149 88.5693 16.9531L99.5614 2.35966C99.6833 2.19738 99.6176 2.0658 99.4149 2.06799L98.2614 2.07545L98.2645 2.07589ZM63.6737 10.636C63.6474 10.8518 63.4456 11.0132 63.243 11.0132H57.7228C57.532 11.0132 57.4351 10.8833 57.4632 10.7237C57.4649 10.7193 57.4654 10.7149 57.4684 10.7105C57.4662 10.7061 57.4662 10.7 57.468 10.6939L57.4934 10.6C58.0206 9.19825 59.0943 8.27852 61.1127 8.27852C63.3847 8.27852 63.8285 9.38817 63.6741 10.6369L63.6737 10.636ZM62.0544 4.26448C54.9689 4.26448 53.2899 8.56536 52.3483 12.9061C51.4061 17.3303 51.4873 21.4676 58.8193 21.4676H59.0794L59.1496 21.4671H59.6233L59.7092 21.4667L59.982 21.4662L60.8768 21.4632L65.5417 21.4347C65.644 21.4294 65.742 21.3914 65.8211 21.3263C65.9003 21.2611 65.9564 21.1723 65.9811 21.0728L66.6899 17.6092C66.7021 17.5653 66.7035 17.5192 66.6942 17.4746C66.6848 17.43 66.6649 17.3883 66.6362 17.353C66.6074 17.3177 66.5706 17.2898 66.5288 17.2717C66.487 17.2535 66.4415 17.2456 66.3961 17.2487H59.804C57.1825 17.2487 56.404 16.5469 56.6908 14.504H67.2276C67.4013 14.5009 67.5566 14.3855 67.6224 14.232C67.6346 14.2025 67.6432 14.1716 67.6478 14.1399C69.211 8.23948 68.7619 4.26536 62.0601 4.26536L62.0544 4.26448ZM28.5658 10.6132L26.875 16.6053C26.842 16.7049 26.7796 16.7921 26.6959 16.8554C26.6123 16.9186 26.5114 16.955 26.4066 16.9597H22.1952C19.0009 16.9597 18.2228 14.4614 19.0009 10.7763C19.7785 7.00703 21.3035 4.66404 24.4474 4.42676C28.7439 4.1022 29.6031 7.12413 28.5702 10.6127L28.5658 10.6132ZM31.454 16.7434C31.454 16.7434 33.4395 11.9189 33.8904 9.13817C34.5044 5.4101 32.6386 0.00439453 25.4298 0.00439453C18.2623 0.00439453 15.1491 5.1658 13.9618 10.7763C12.7741 16.4276 14.3303 21.3842 21.4618 21.3434L32.339 21.2996C32.4433 21.2944 32.5435 21.2573 32.6259 21.1933C32.7084 21.1293 32.7692 21.0414 32.8 20.9417L33.7154 17.4504C33.7296 17.4081 33.7333 17.363 33.726 17.3189C33.7187 17.2749 33.7006 17.2333 33.6734 17.1979C33.6463 17.1625 33.6108 17.1343 33.5701 17.1159C33.5295 17.0974 33.4849 17.0893 33.4404 17.0921L31.686 17.0816C31.5136 17.0803 31.4154 16.9693 31.436 16.8215C31.4397 16.7932 31.4469 16.7655 31.4575 16.739L31.454 16.7434ZM66.9364 13.5167C66.9364 13.5808 66.911 13.6422 66.8656 13.6876C66.8203 13.7329 66.7588 13.7583 66.6947 13.7583C66.6307 13.7583 66.5692 13.7329 66.5239 13.6876C66.4785 13.6422 66.4531 13.5808 66.4531 13.5167C66.4531 13.4526 66.4785 13.3911 66.5239 13.3458C66.5692 13.3005 66.6307 13.275 66.6947 13.275C66.7588 13.275 66.8203 13.3005 66.8656 13.3458C66.911 13.3911 66.9364 13.4526 66.9364 13.5167Z" fill="#3D3D3D"/>
</g>
<defs>
<clipPath id="clip0_91_82">
<rect width="100" height="28.0702" fill="white"/>
</clipPath>
</defs>
</svg>
