<svg width="70" height="70" viewBox="0 0 70 70" fill="none" xmlns="http://www.w3.org/2000/svg">
<path d="M0 0H70V70H0V0ZM18.3944 58.4889C19.95 61.7944 23.0222 64.5167 28.2722 64.5167C34.1056 64.5167 38.1111 61.4056 38.1111 54.6V32.1222H31.5V54.4444C31.5 57.7889 30.1389 58.6444 28 58.6444C25.7444 58.6444 24.8111 57.0889 23.7611 55.2611L18.3944 58.4889ZM41.65 57.7889C43.5944 61.6 47.5222 64.5167 53.6667 64.5167C59.8889 64.5167 64.5556 61.2889 64.5556 55.3389C64.5556 49.8556 61.4056 47.4056 55.8056 44.9944L54.1722 44.2944C51.3333 43.0889 50.1278 42.2722 50.1278 40.3278C50.1278 38.7333 51.3333 37.4889 53.2778 37.4889C55.1444 37.4889 56.3889 38.3056 57.5167 40.3278L62.6111 36.9444C60.4722 33.2111 57.4389 31.7722 53.2778 31.7722C47.4056 31.7722 43.6333 35.5056 43.6333 40.4444C43.6333 45.8111 46.7833 48.3389 51.5278 50.3611L53.1611 51.0611C56.1944 52.3833 57.9833 53.2 57.9833 55.4556C57.9833 57.3222 56.2333 58.6833 53.5111 58.6833C50.2833 58.6833 48.4167 57.0111 47.0167 54.6778L41.65 57.7889Z" fill="#3D3D3D"/>
</svg>
