<svg width="49" height="49" viewBox="0 0 49 49" fill="none" xmlns="http://www.w3.org/2000/svg">
<g clip-path="url(#clip0_94_92)">
<path d="M43.9687 0.665039H4.65266C2.25467 0.665039 0.310669 2.60904 0.310669 5.00703V44.3229C0.310669 46.721 2.25467 48.665 4.65266 48.665H43.9686C46.3667 48.665 48.3107 46.721 48.3107 44.3229V5.00703C48.3107 2.60904 46.3667 0.665039 43.9687 0.665039ZM15.1639 42.1114C15.1639 42.8093 14.5982 43.375 13.9003 43.375H8.52156C7.82367 43.375 7.25798 42.8093 7.25798 42.1114V19.5638C7.25798 18.866 7.82367 18.3003 8.52156 18.3003H13.9003C14.5982 18.3003 15.1639 18.866 15.1639 19.5638V42.1114ZM11.2109 16.1748C8.38887 16.1748 6.10108 13.887 6.10108 11.065C6.10108 8.24288 8.38887 5.95509 11.2109 5.95509C14.033 5.95509 16.3208 8.24288 16.3208 11.065C16.3208 13.887 14.0331 16.1748 11.2109 16.1748ZM43.2732 42.2132C43.2732 42.8548 42.753 43.375 42.1114 43.375H36.3396C35.698 43.375 35.1778 42.8548 35.1778 42.2132V31.6371C35.1778 30.0594 35.6406 24.7235 31.0547 24.7235C27.4975 24.7235 26.776 28.3757 26.6311 30.0148V42.2132C26.6311 42.8548 26.111 43.375 25.4693 43.375H19.887C19.2454 43.375 18.7252 42.8548 18.7252 42.2132V19.4621C18.7252 18.8205 19.2454 18.3003 19.887 18.3003H25.4693C26.1109 18.3003 26.6311 18.8205 26.6311 19.4621V21.4292C27.9501 19.4498 29.9103 17.9219 34.0839 17.9219C43.3261 17.9219 43.2732 26.5564 43.2732 31.3006V42.2132Z" fill="#3D3D3D"/>
</g>
<defs>
<clipPath id="clip0_94_92">
<rect width="48" height="48" fill="white" transform="translate(0.310669 0.665039)"/>
</clipPath>
</defs>
</svg>
