<svg width="580" height="141" viewBox="0 0 580 141" fill="none" xmlns="http://www.w3.org/2000/svg">
<path d="M51.6599 0H14.0891C6.30789 0 0 6.31278 0 14.1V126.9C0 134.687 6.30789 141 14.0891 141H51.6599C59.4411 141 65.749 134.687 65.749 126.9V14.1C65.749 6.31278 59.4411 0 51.6599 0Z" fill="#313530"/>
<path d="M126.802 0H89.2308C81.4496 0 75.1417 6.31279 75.1417 14.1V51.7C75.1417 59.4872 81.4496 65.8 89.2308 65.8H126.802C134.583 65.8 140.891 59.4872 140.891 51.7V14.1C140.891 6.31279 134.583 0 126.802 0Z" fill="#313530"/>
<path d="M126.802 75.2H89.2308C81.4496 75.2 75.1417 81.5127 75.1417 89.3V126.9C75.1417 134.687 81.4496 141 89.2308 141H126.802C134.583 141 140.891 134.687 140.891 126.9V89.3C140.891 81.5127 134.583 75.2 126.802 75.2Z" fill="#313530"/>
<path fill-rule="evenodd" clip-rule="evenodd" d="M170.769 112.894C171.516 112.894 172.013 112.396 172.013 111.648V81.6319C172.013 81.1337 172.262 80.8846 172.76 80.8846H190.308C206.736 80.8846 218.186 70.2979 218.186 54.48C218.186 38.7867 206.736 28.2 190.308 28.2H158.572C157.826 28.2 157.328 28.6982 157.328 29.4455V111.648C157.328 112.396 157.826 112.894 158.572 112.894H170.769ZM189.437 67.5577H172.76C172.262 67.5577 172.013 67.3087 172.013 66.8105V42.1496C172.013 41.6514 172.262 41.4023 172.76 41.4023H189.437C198.149 41.4023 203.5 46.7579 203.5 54.48C203.5 62.3267 198.149 67.5577 189.437 67.5577ZM268.408 112.894C269.155 112.894 269.634 112.283 269.634 111.554V71.957C269.634 57.582 262.853 51.794 244.556 51.794C234.724 51.794 228.191 53.8055 223.338 57.2177C222.84 57.582 222.715 58.1906 223.089 58.8016L227.693 66.841C228.067 67.452 228.813 67.5718 229.436 67.0854C232.298 64.8929 236.377 63.544 243.097 63.544C253.178 63.544 256.442 66.1101 256.442 72.8123V75.6135C256.442 76.1 256.193 76.3444 255.695 76.3444H243.499C228.689 76.3444 219.479 82.1912 219.479 94.9846C219.479 107.289 228.689 112.894 239.641 112.894C248.104 112.894 253.829 111.294 256.691 107.273V111.554C256.691 112.283 257.208 112.894 257.954 112.894H268.408ZM243.126 102.93C236.405 102.93 232.796 100.439 232.796 95.4569C232.796 89.8522 236.778 87.3612 245.739 87.3612H255.695C256.193 87.3612 256.442 87.6103 256.442 88.1085V92.7168C256.442 99.5671 251.713 102.93 243.126 102.93ZM304.951 112.913C304.951 112.913 306.195 112.415 306.195 111.667V101.703C306.195 100.956 305.698 100.458 304.951 100.458H301.839C297.981 100.458 296.239 99.0877 296.239 94.853V64.2043C296.239 63.7061 296.488 63.544 296.986 63.544H304.246C304.993 63.544 305.545 63.1163 305.545 62.369V53.1287C305.551 52.9549 305.521 52.7817 305.458 52.6195C305.396 52.4573 305.301 52.3094 305.179 52.1848C305.058 52.0602 304.913 51.9613 304.753 51.8941C304.592 51.827 304.42 51.7929 304.246 51.794H296.986C296.488 51.794 296.239 51.472 296.239 50.9738V29.516C296.239 28.7687 295.863 28.2963 295.114 28.2963H283.479C282.732 28.2963 282.3 28.7663 282.3 29.516V50.9761C282.3 51.4743 282.051 51.7963 281.554 51.7963H275.411C275.236 51.795 275.063 51.8288 274.901 51.8956C274.739 51.9624 274.593 52.0609 274.47 52.1853C274.347 52.3097 274.25 52.4574 274.185 52.6199C274.12 52.7823 274.088 52.9561 274.091 53.1311V62.3713C274.091 63.1186 274.664 63.5463 275.411 63.5463H281.554C282.051 63.5463 282.3 63.7108 282.3 64.2066V95.3535C282.3 107.061 286.903 112.915 298.977 112.915L304.951 112.913ZM362.575 112.894C363.322 112.894 363.82 112.396 363.82 111.648V73.7853C363.82 60.9566 356.261 51.794 343.442 51.794C335.477 51.794 329.844 54.7291 327.23 58.4656L327.106 29.4455C327.106 28.6982 326.608 28.2 325.861 28.2H314.412C313.665 28.2 313.167 28.6982 313.167 29.4455V111.648C313.167 112.396 313.665 112.894 314.412 112.894H325.861C326.608 112.894 327.106 112.396 327.106 111.648V77.0236C327.106 69.3015 332.213 63.544 339.431 63.544C346.899 63.544 349.881 69.3015 349.881 77.0236V111.648C349.881 112.396 350.379 112.894 351.125 112.894H362.575ZM418.504 103.854C418.877 103.247 419.002 102.641 418.38 102.154L410.539 95.4875C409.917 95.0034 409.294 95.0034 408.797 95.6097C405.81 98.8809 402.698 100.7 397.72 100.7C392.369 100.7 388.262 98.1547 386.519 93.1845C385.524 90.2752 385.275 86.7596 385.275 82.2734C385.275 77.7873 385.524 74.3939 386.519 71.4846C388.262 66.3922 392.369 63.544 397.72 63.544C402.698 63.544 405.81 65.666 408.797 68.9372C409.294 69.5435 409.917 69.6657 410.539 69.1816L418.38 62.5123C419.002 62.0282 418.877 61.2997 418.504 60.8156C413.775 55.239 406.681 51.7235 397.72 51.7235C385.648 51.7235 376.439 57.4222 372.954 67.8468C371.709 71.4846 371.087 76.0906 371.087 82.2734C371.087 88.4563 371.709 93.0623 372.954 96.7001C376.439 107.125 385.648 112.823 397.72 112.823C406.681 112.823 413.775 109.308 418.504 103.854ZM474.557 96.7001C475.926 92.5782 476.549 88.6983 476.549 82.2734C476.549 75.8485 475.926 71.9687 474.557 67.8468C471.197 57.6642 461.988 51.7235 449.916 51.7235C437.719 51.7235 428.51 57.6642 425.149 67.8468C423.78 71.9687 423.158 75.8485 423.158 82.2734C423.158 88.6983 423.78 92.5782 425.149 96.7001C428.51 106.883 437.719 112.823 449.916 112.823C461.988 112.823 471.197 106.883 474.557 96.7001ZM438.59 93.9623C437.595 90.8486 437.346 87.9839 437.346 82.8774C437.346 77.7708 437.595 75.0307 438.59 71.7924C440.333 66.8104 444.315 63.544 449.916 63.544C455.516 63.544 459.374 66.8104 461.116 71.7924C462.112 75.0307 462.361 77.7708 462.361 82.8774C462.361 87.9839 462.112 90.8486 461.116 93.9623C459.374 98.9444 455.516 101.809 449.916 101.809C444.315 101.809 440.333 98.9444 438.59 93.9623ZM497.133 112.894C497.879 112.894 498.377 112.396 498.377 111.648V79.1409C498.377 69.5505 502.947 63.544 510.787 63.544C514.023 63.544 515.801 65.0667 518.539 66.8105C519.161 67.3087 519.783 67.1841 520.281 66.5613L526.877 58.2165C527.375 57.5938 527.25 57.0956 526.628 56.4728C523.517 53.3591 518.727 51.794 513.997 51.794C506.406 51.794 501.364 54.6046 498.502 59.2129V53.1852C498.499 52.8206 498.355 52.4712 498.099 52.2115C497.844 51.9517 497.497 51.8019 497.133 51.794H485.683C484.936 51.794 484.438 52.4379 484.438 53.1852V111.648C484.438 112.396 484.936 112.894 485.683 112.894H497.133ZM578.575 102.883C579.072 102.277 579.072 101.67 578.45 101.186L571.107 94.8812C570.485 94.3971 569.863 94.517 569.241 95.1233C566.254 98.2769 561.898 100.7 555.177 100.7C548.457 100.7 543.728 97.5484 541.736 91.8497C541.239 90.5172 540.865 89.0626 540.865 87.3659C540.865 86.8794 541.114 86.6374 541.612 86.6374H578.575C579.446 86.6374 579.944 86.1533 579.944 85.4248C579.944 75.9684 579.321 71.9687 577.952 67.8468C574.592 57.9063 565.631 51.7235 553.311 51.7235C541.363 51.7235 532.153 57.6642 528.793 67.8468C527.549 71.6068 526.802 76.2128 526.802 82.2734C526.802 88.3364 527.673 92.8203 528.918 96.5779C532.278 106.763 541.239 112.823 553.933 112.823C565.009 112.823 573.472 108.702 578.575 102.883ZM565.88 76.1517C565.88 76.6499 565.631 76.899 565.134 76.899H541.612C541.114 76.899 540.865 76.6499 540.865 76.1517C540.865 74.0343 541.114 72.5397 541.612 71.0452C543.23 66.1877 547.647 63.544 553.374 63.544C558.974 63.544 563.516 66.1877 565.134 71.0452C565.631 72.5397 565.88 74.0343 565.88 76.1517Z" fill="#313530"/>
</svg>
