<svg width="100" height="29" viewBox="0 0 100 29" fill="none" xmlns="http://www.w3.org/2000/svg">
<g clip-path="url(#clip0_91_66)">
<path d="M11.3 1.00003C11.5 1.00003 11.6 1.10003 11.8 1.20003C10.6 1.70003 9.4 3.00003 8.8 5.80003L6.6 6.40003C7.3 4.40003 8.7 1.00003 11.3 1.00003ZM12.4 2.00003C12.6 2.60003 12.8 3.30003 12.8 4.40003C12.8 4.50003 12.8 4.50003 12.8 4.60003L9.9 5.40003C10.5 3.30003 11.5 2.40003 12.4 2.00003ZM15 3.80003L13.7 4.20003C13.7 4.10003 13.7 4.00003 13.7 3.90003C13.7 3.00003 13.6 2.30003 13.4 1.70003C14.1 1.90003 14.7 2.80003 15 3.80003ZM21.5 5.40003C21.5 5.30003 21.4 5.20003 21.3 5.20003C21.1 5.20003 19 5.00003 19 5.00003C19 5.00003 17.5 3.50003 17.3 3.40003C17.1 3.20003 16.8 3.30003 16.7 3.30003C16.7 3.30003 16.4 3.40003 15.9 3.60003C15.4 2.20003 14.5 0.900028 13 0.900028H12.9C12.5 0.300028 11.9 0.100028 11.4 0.100028C7.8 2.79447e-05 6.1 4.50003 5.5 6.80003C4.7 7.00003 3.9 7.30003 3 7.60003C2.2 7.80003 2.2 7.90003 2.1 8.60003C2 9.10003 0 24.9 0 24.9L15.9 27.9L24.5 26C24.5 26 21.5 5.60003 21.5 5.40003Z" fill="#3D3D3D"/>
<path d="M21.2 5.20005C21.1 5.20005 19 5.00005 19 5.00005C19 5.00005 17.5 3.50005 17.3 3.40005C17.2 3.30005 17.2 3.30005 17.1 3.30005L15.9 27.9L24.5 26C24.5 26 21.5 5.60005 21.5 5.40005C21.5 5.30005 21.3 5.20005 21.2 5.20005Z" fill="#3D3D3D" fill-opacity="0.239216"/>
<path d="M13 10L11.9 13.2C11.9 13.2 11 12.7 9.80001 12.7C8.10001 12.7 8.00001 13.7 8.00001 14C8.00001 15.4 11.8 16 11.8 19.4C11.8 22.1 10.1 23.8 7.80001 23.8C5.10001 23.8 3.70001 22.1 3.70001 22.1L4.40001 19.7C4.40001 19.7 5.80001 20.9 7.00001 20.9C7.80001 20.9 8.10001 20.3 8.10001 19.8C8.10001 17.9 5.00001 17.8 5.00001 14.7C5.00001 12.1 6.90001 9.60002 10.6 9.60002C12.3 9.50002 13 10 13 10Z" fill="#EDE8DA"/>
<path d="M34.6 15.9C33.7 15.4 33.3 15 33.3 14.5C33.3 13.8 33.9 13.4 34.9 13.4C36 13.4 37 13.9 37 13.9L37.8 11.5C37.8 11.5 37.1 10.9 35 10.9C32 10.9 30 12.6 30 15C30 16.4 31 17.4 32.2 18.1C33.2 18.7 33.6 19.1 33.6 19.7C33.6 20.3 33.1 20.9 32.1 20.9C30.7 20.9 29.3 20.2 29.3 20.2L28.5 22.6C28.5 22.6 29.7 23.4 31.8 23.4C34.8 23.4 37 21.9 37 19.2C37 17.7 35.9 16.6 34.6 15.9ZM46.7 10.8C45.2 10.8 44 11.5 43.1 12.6L44.4 5.8H41L37.7 23.1H41.1L42.2 17.2C42.6 15 43.8 13.6 44.9 13.6C45.7 13.6 46 14.1 46 14.9C46 15.4 46 15.9 45.9 16.4L44.6 23.2H48L49.3 16.2C49.4 15.5 49.5 14.6 49.5 14C49.5 12 48.5 10.8 46.7 10.8ZM55.4 20.7C54.2 20.7 53.8 19.7 53.8 18.5C53.8 16.6 54.8 13.4 56.6 13.4C57.8 13.4 58.2 14.4 58.2 15.4C58.2 17.6 57.2 20.7 55.4 20.7ZM57.1 10.8C53 10.8 50.3 14.5 50.3 18.6C50.3 21.2 51.9 23.3 55 23.3C59 23.3 61.7 19.7 61.7 15.5C61.7 13.1 60.3 10.8 57.1 10.8ZM67.1 20.8C66.2 20.8 65.7 20.3 65.7 20.3L66.3 17.1C66.7 15 67.8 13.6 69 13.6C70 13.6 70.4 14.6 70.4 15.5C70.3 17.7 69 20.8 67.1 20.8ZM70.4 10.8C68.1 10.8 66.8 12.8 66.8 12.8L67 11H64C63.9 12.2 63.6 14.1 63.3 15.5L60.9 27.9H64.3L65.2 22.9H65.3C65.3 22.9 66 23.3 67.3 23.3C71.3 23.3 73.9 19.2 73.9 15.1C73.9 12.9 72.9 10.8 70.4 10.8ZM78.7 6C77.6 6 76.8 6.9 76.8 8C76.8 9 77.4 9.7 78.4 9.7C79.5 9.7 80.4 9 80.4 7.7C80.4 6.7 79.7 6 78.7 6ZM74 23.1H77.4L79.7 11.1H76.3L74 23.1ZM88.3 11.1H85.9L86 10.5C86.2 9.3 86.9 8.3 88 8.3C88.6 8.3 89.1 8.5 89.1 8.5L89.8 5.8C89.8 5.8 89.2 5.5 88 5.5C86.8 5.5 85.6 5.8 84.7 6.6C83.5 7.6 83 9 82.7 10.4L82.6 11H81L80.5 13.6H82.1L80.3 23.1H83.7L85.5 13.6H87.8L88.3 11.1ZM96.4 11.1C96.4 11.1 94.3 16.4 93.3 19.3C93.2 18.4 92.5 11.1 92.5 11.1H88.9L90.9 22.1C90.9 22.3 90.9 22.5 90.8 22.7C90.4 23.5 89.7 24.2 89 24.7C88.4 25.2 87.6 25.5 87.1 25.7L88 28.6C88.7 28.5 90.1 27.9 91.3 26.8C92.8 25.4 94.3 23.1 95.7 20.1L99.8 11.2L96.4 11.1Z" fill="#3D3D3D"/>
</g>
<defs>
<clipPath id="clip0_91_66">
<rect width="100" height="28.6" fill="white"/>
</clipPath>
</defs>
</svg>
