<svg width="100" height="26" viewBox="0 0 100 26" fill="none" xmlns="http://www.w3.org/2000/svg">
<g clip-path="url(#clip0_90_35)">
<path d="M32.29 9.83546C32.29 8.04157 30.5456 6.13634 27.5269 6.13634C24.1371 6.13634 20.4132 8.62304 19.8441 13.5841C19.2626 18.5946 22.3803 20.8215 25.5227 20.8215C28.6651 20.8215 30.3105 19.5967 31.9931 17.9636C30.5456 16.145 28.6775 16.9863 28.3187 17.1718C27.9228 17.3698 27.4156 17.642 26.3763 17.642C25.1639 17.642 23.9268 17.0976 23.9268 14.8336C31.6962 14.0666 32.29 11.6293 32.29 9.83546ZM28.4424 10.1324C28.3929 10.6891 28.1702 11.6417 24.2361 12.1737C25.065 9.22925 26.6485 9.00656 27.3784 9.00656C28.0589 9.00656 28.4919 9.53854 28.4424 10.1324ZM15.279 10.6149C15.279 10.6149 13.6088 15.8604 13.4727 16.2935C13.4232 15.8481 12.1984 6.43326 12.1984 6.43326C9.35296 6.43326 7.83125 8.4622 7.02709 10.6025C7.02709 10.6025 4.99814 15.8604 4.82494 16.3058C4.81257 15.8976 4.51565 10.6644 4.51565 10.6644C4.34245 8.04157 1.94235 6.44563 0 6.44563L2.35061 20.7101C5.33218 20.6978 6.94049 18.6812 7.78176 16.5409C7.78176 16.5409 9.57565 11.9015 9.64988 11.6912C9.66225 11.8892 10.9365 20.7101 10.9365 20.7101C13.9305 20.7101 15.5388 18.8173 16.4048 16.7512L20.5988 6.44563C17.642 6.44563 16.0831 8.46221 15.279 10.6149ZM43.276 6.11159C41.4326 6.11159 40.0223 7.1137 38.8346 8.58592V8.57355L39.8986 0C37.449 0 35.4571 2.12792 35.0736 5.29506L33.2179 20.5988C34.6282 20.5988 36.1252 20.1905 36.9294 19.1513C37.6469 20.0792 38.7232 20.8215 40.3192 20.8215C44.4513 20.8215 47.2844 16.0213 47.2844 11.518C47.2597 7.41061 45.2678 6.11159 43.276 6.11159ZM42.8925 13.4727C42.4595 15.9842 41.0615 17.6915 39.713 17.6915C38.3521 17.6915 37.7706 17.0852 37.7706 17.0852C38.0304 14.8831 38.1913 13.5346 38.6861 12.3716C39.181 11.2087 40.3563 9.35296 41.5811 9.35296C42.7811 9.35296 43.3255 10.9489 42.8925 13.4727ZM57.6024 6.44563H54.7198L54.7322 6.29717C54.9301 4.41668 55.3755 3.42695 56.8477 3.26611C57.8498 3.16714 58.2952 2.64753 58.4065 2.07844C58.4931 1.63306 58.7653 0.0866015 58.7653 0.0866015C52.9754 0.0494866 51.1568 2.54856 50.6866 6.35903L50.6743 6.44563H50.6124C49.6722 6.44563 48.6329 7.50959 48.4597 8.8581L48.3979 9.35296H50.3278L48.7072 22.7391L48.2123 25.1392C48.2742 25.1392 48.3484 25.1516 48.4102 25.1516C51.1196 25.0526 52.8517 22.9123 53.2352 19.807L54.4971 9.35296H55.4002C56.291 9.35296 57.3302 8.4622 57.5158 6.97761L57.6024 6.44563ZM72.5968 6.19819C69.2688 6.19819 66.1264 8.64778 65.1615 12.4954C64.1965 16.3429 65.6563 20.8957 70.5555 20.8957C75.4423 20.8957 78.263 16.1574 78.263 12.2108C78.263 8.289 75.6031 6.19819 72.5968 6.19819ZM73.9453 13.349C73.7721 15.0934 73.0051 17.7409 70.9019 17.7409C68.7863 17.7409 69.0833 14.648 69.2936 13.1758C69.5163 11.6046 70.3947 9.36533 72.2875 9.36533C73.9824 9.36533 74.1433 11.3819 73.9453 13.349ZM94.7049 10.6149C94.7049 10.6149 93.0348 15.8604 92.8987 16.2935C92.8492 15.8481 91.6244 6.43326 91.6244 6.43326C88.7789 6.43326 87.2572 8.4622 86.453 10.6025C86.453 10.6025 84.4241 15.8604 84.2509 16.3058C84.2385 15.8976 83.9416 10.6644 83.9416 10.6644C83.7684 8.04157 81.3683 6.44563 79.426 6.44563L81.7642 20.7101C84.7458 20.6978 86.3541 18.6812 87.1953 16.5409C87.1953 16.5409 88.9892 11.9015 89.0511 11.6912C89.0758 11.8892 90.3377 20.7101 90.3377 20.7101C93.3317 20.7101 94.94 18.8173 95.806 16.7512L100 6.44563C97.0555 6.44563 95.4967 8.46221 94.7049 10.6149ZM60.3241 0.0866015L57.8993 19.6462L57.4044 22.0586C57.4663 22.0586 57.5405 22.071 57.6024 22.071C60.2128 22.0339 62.0685 19.7451 62.4149 16.8626L63.8129 5.64147C64.2336 2.21452 62.1923 0.0866015 60.3241 0.0866015Z" fill="#3D3D3D"/>
</g>
<defs>
<clipPath id="clip0_90_35">
<rect width="100" height="25.1516" fill="white"/>
</clipPath>
</defs>
</svg>
